<?xml version="1.0" standalone="no"?>
<!DOCTYPE svg PUBLIC "-//W3C//DTD SVG 20010904//EN"
 "http://www.w3.org/TR/2001/REC-SVG-20010904/DTD/svg10.dtd">
<svg version="1.0" xmlns="http://www.w3.org/2000/svg"
 width="512.000000pt" height="512.000000pt" viewBox="0 0 512.000000 512.000000"
 preserveAspectRatio="xMidYMid meet">

<g transform="translate(0.000000,512.000000) scale(0.100000,-0.100000)"
fill="#000000" stroke="none">
<path d="M3320 3918 l1 -593 420 -280 c232 -154 434 -288 450 -298 l29 -19 0
594 -1 593 -420 280 c-232 154 -434 288 -450 298 l-29 19 0 -594z"/>
<path d="M2246 3895 l-438 -293 433 -289 c239 -159 440 -293 447 -297 9 -6 12
114 12 583 0 325 -3 591 -7 590 -5 0 -205 -132 -447 -294z"/>
<path d="M0 2997 l0 -594 445 -296 c245 -164 447 -297 450 -297 3 0 5 267 5
593 l0 594 -445 296 c-245 164 -447 297 -450 297 -3 0 -5 -267 -5 -593z"/>
<path d="M2700 2400 l0 -592 28 18 c224 146 852 569 852 574 0 5 -628 428
-852 574 l-28 18 0 -592z"/>
<path d="M900 1198 l1 -593 420 -280 c232 -154 434 -288 450 -298 l29 -19 0
594 0 595 -445 296 c-245 164 -447 297 -450 297 -3 0 -5 -267 -5 -592z"/>
</g>
</svg>
